<?xml version="1.0" encoding="utf-8" ?>
<svg baseProfile="tiny" height="2348" version="1.2" width="2304" xmlns="http://www.w3.org/2000/svg" xmlns:ev="http://www.w3.org/2001/xml-events" xmlns:xlink="http://www.w3.org/1999/xlink"><defs /><path d="M 2239.00,2267.20 L 47.80,2267.00 L 48.00,55.80 L 2239.20,56.00" fill="none" stroke="black" stroke-width="4" /><path d="M 1311.80,2127.00 L 1311.80,2124.00 L 1315.00,2123.80 L 1315.80,2120.00 L 1319.80,2119.00 L 1319.80,2104.00 L 1323.80,2103.00 L 1323.80,2096.00 L 1327.80,2095.00 L 1327.80,2088.00 L 1331.80,2087.00 L 1331.80,2060.00 L 1327.80,2059.00 L 1327.80,2052.00 L 1323.80,2051.00 L 1323.80,1960.00 L 1319.80,1959.00 L 1319.80,1920.00 L 1316.00,1919.20 L 1315.00,1915.20 L 1311.80,1915.00 L 1311.80,1896.00 L 1307.80,1895.00 L 1307.80,1796.00 L 1303.80,1795.00 L 1303.80,1772.00 L 1300.00,1771.20 L 1299.00,1767.20 L 1295.80,1767.00 L 1295.80,1744.00 L 1291.80,1743.00 L 1291.80,1684.00 L 1295.00,1683.80 L 1295.80,1680.00 L 1299.00,1679.80 L 1299.80,1676.00 L 1303.80,1675.00 L 1303.80,1668.00 L 1307.80,1667.00 L 1307.80,1628.00 L 1311.00,1627.80 L 1312.00,1623.80 L 1319.80,1623.00 L 1319.80,1604.00 L 1323.80,1603.00 L 1323.80,1572.00 L 1327.00,1571.80 L 1327.80,1568.00 L 1331.00,1567.80 L 1331.80,1564.00 L 1335.00,1563.80 L 1335.80,1560.00 L 1339.80,1559.00 L 1339.80,1512.00 L 1343.00,1511.80 L 1343.80,1508.00 L 1347.00,1507.80 L 1347.80,1504.00 L 1351.80,1503.00 L 1351.80,1492.00 L 1355.80,1491.00 L 1355.80,1456.00 L 1359.80,1455.00 L 1359.80,1448.00 L 1363.00,1447.80 L 1363.80,1444.00 L 1367.00,1443.80 L 1367.80,1440.00 L 1371.80,1439.00 L 1372.00,1435.80 L 1383.00,1435.80 L 1383.20,1439.00 L 1387.00,1439.80 L 1388.00,1443.80 L 1395.00,1443.80 L 1396.00,1447.80 L 1411.00,1447.80 L 1411.20,1455.00 L 1415.00,1455.80 L 1416.00,1459.80 L 1431.00,1459.80 L 1432.00,1463.80 L 1443.00,1463.80 L 1443.20,1467.00 L 1447.00,1467.80 L 1447.20,1471.00 L 1451.00,1471.80 L 1452.00,1475.80 L 1459.00,1475.80 L 1460.00,1479.80 L 1475.00,1479.80 L 1475.20,1487.00 L 1483.00,1487.80 L 1484.00,1491.80 L 1503.00,1491.80 L 1503.20,1495.00 L 1507.00,1495.80 L 1507.20,1499.00 L 1511.00,1499.80 L 1511.20,1503.00 L 1515.00,1503.80 L 1516.00,1507.80 L 1531.00,1507.80 L 1532.00,1511.80 L 1539.00,1511.80 L 1539.20,1515.00 L 1543.00,1515.80 L 1543.20,1519.00 L 1547.00,1519.80 L 1548.00,1523.80 L 1555.00,1523.80 L 1556.00,1527.80 L 1575.00,1527.80 L 1575.20,1531.00 L 1579.00,1531.80 L 1579.20,1535.00 L 1583.00,1535.80 L 1583.20,1539.00 L 1587.00,1539.80 L 1588.00,1543.80 L 1607.00,1543.80 L 1607.20,1547.00 L 1611.00,1547.80 L 1611.20,1551.00 L 1615.00,1551.80 L 1615.20,1555.00 L 1619.00,1555.80 L 1620.00,1559.80 L 1643.00,1559.80 L 1643.20,1563.00 L 1647.00,1563.80 L 1647.20,1567.00 L 1651.00,1567.80 L 1652.00,1571.80 L 1679.00,1571.80 L 1679.80,1564.00 L 1683.00,1563.80 L 1684.00,1559.80 L 1707.00,1559.80 L 1707.80,1556.00 L 1711.00,1555.80 L 1711.80,1552.00 L 1715.00,1551.80 L 1715.80,1548.00 L 1719.80,1547.00 L 1720.00,1543.80 L 1739.00,1543.80 L 1740.00,1539.80 L 1747.00,1539.80 L 1748.00,1535.80 L 1759.00,1535.80 L 1759.80,1532.00 L 1763.80,1531.00 L 1764.00,1527.80 L 1783.00,1527.80 L 1783.80,1524.00 L 1787.00,1523.80 L 1787.80,1520.00 L 1791.00,1519.80 L 1791.80,1516.00 L 1795.80,1515.00 L 1796.00,1511.80 L 1803.00,1511.80 L 1804.00,1507.80 L 1819.00,1507.80 L 1819.20,1511.00 L 1823.00,1511.80 L 1823.80,1508.00 L 1827.00,1507.80 L 1827.80,1504.00 L 1831.00,1503.80 L 1831.80,1500.00 L 1835.00,1499.80 L 1835.80,1496.00 L 1839.80,1495.00 L 1840.00,1491.80 L 1863.00,1491.80 L 1864.00,1487.80 L 1871.00,1487.80 L 1871.80,1484.00 L 1875.80,1483.00 L 1876.00,1479.80 L 1887.00,1479.80 L 1888.00,1475.80 L 1903.00,1475.80 L 1903.80,1472.00 L 1907.00,1471.80 L 1907.80,1468.00 L 1911.80,1467.00 L 1912.00,1463.80 L 1919.00,1463.80 L 1920.00,1459.80 L 1943.00,1459.80 L 1943.80,1456.00 L 1947.00,1455.80 L 1947.80,1452.00 L 1951.80,1451.00 L 1952.00,1447.80 L 1967.00,1447.80 L 1968.00,1443.80 L 1975.00,1443.80 L 1975.80,1440.00 L 1979.00,1439.80 L 1979.80,1436.00 L 1983.80,1435.00 L 1984.00,1431.80 L 1991.00,1431.80 L 1992.00,1427.80 L 2019.00,1427.80 L 2019.80,1424.00 L 2023.00,1423.80 L 2023.80,1420.00 L 2027.00,1419.80 L 2027.80,1416.00 L 2031.80,1415.00 L 2032.00,1411.80 L 2039.00,1411.80 L 2040.00,1407.80 L 2047.00,1407.80 L 2047.80,1404.00 L 2051.00,1403.80 L 2051.80,1400.00 L 2055.00,1399.80 L 2055.80,1396.00 L 2059.80,1395.00 L 2059.80,1380.00 L 2063.80,1379.00 L 2063.80,1372.00 L 2067.00,1371.80 L 2067.80,1368.00 L 2071.00,1367.80 L 2071.80,1364.00 L 2075.80,1363.00 L 2075.80,1356.00 L 2071.80,1355.00 L 2071.80,1348.00 L 2067.80,1347.00 L 2067.80,1340.00 L 2064.00,1339.20 L 2063.00,1335.20 L 2059.80,1335.00 L 2059.80,1324.00 L 2056.00,1323.20 L 2055.80,1320.00 L 2052.00,1319.20 L 2051.80,1316.00 L 2048.00,1315.20 L 2047.80,1312.00 L 2044.00,1311.20 L 2043.80,1308.00 L 2040.00,1307.20 L 2039.00,1303.20 L 2028.00,1303.20 L 2027.80,1300.00 L 2024.00,1299.20 L 2023.00,1295.20 L 1996.00,1295.20 L 1995.00,1299.20 L 1988.00,1299.20 L 1987.00,1303.20 L 1964.00,1303.20 L 1963.20,1307.00 L 1960.00,1307.20 L 1959.20,1311.00 L 1955.20,1312.00 L 1955.00,1315.20 L 1948.00,1315.20 L 1947.00,1319.20 L 1928.00,1319.20 L 1927.20,1323.00 L 1923.20,1324.00 L 1923.00,1327.20 L 1912.00,1327.20 L 1911.20,1331.00 L 1907.20,1332.00 L 1907.00,1335.20 L 1888.00,1335.20 L 1887.00,1339.20 L 1880.00,1339.20 L 1879.20,1343.00 L 1876.00,1343.20 L 1875.20,1347.00 L 1872.00,1347.20 L 1871.20,1351.00 L 1867.20,1352.00 L 1867.00,1355.20 L 1856.00,1355.20 L 1855.80,1352.00 L 1852.00,1351.20 L 1851.00,1355.20 L 1844.00,1355.20 L 1843.20,1359.00 L 1839.20,1360.00 L 1839.20,1367.00 L 1836.00,1367.20 L 1835.00,1371.20 L 1804.00,1371.20 L 1803.20,1375.00 L 1800.00,1375.20 L 1799.20,1379.00 L 1795.20,1380.00 L 1795.00,1383.20 L 1776.00,1383.20 L 1775.00,1387.20 L 1768.00,1387.20 L 1767.20,1391.00 L 1764.00,1391.20 L 1763.20,1395.00 L 1759.20,1396.00 L 1759.00,1399.20 L 1748.00,1399.20 L 1747.00,1403.20 L 1728.00,1403.20 L 1727.20,1407.00 L 1723.20,1408.00 L 1723.00,1415.20 L 1704.00,1415.20 L 1703.00,1419.20 L 1692.00,1419.20 L 1691.20,1423.00 L 1688.00,1423.20 L 1687.20,1427.00 L 1684.00,1427.20 L 1683.20,1431.00 L 1679.20,1432.00 L 1679.00,1435.20 L 1652.00,1435.20 L 1651.80,1432.00 L 1647.80,1431.00 L 1647.80,1424.00 L 1644.00,1423.20 L 1643.00,1419.20 L 1620.00,1419.20 L 1619.80,1412.00 L 1616.00,1411.20 L 1615.80,1408.00 L 1612.00,1407.20 L 1611.00,1403.20 L 1592.00,1403.20 L 1591.00,1399.20 L 1584.00,1399.20 L 1583.80,1396.00 L 1580.00,1395.20 L 1579.00,1391.20 L 1572.00,1391.20 L 1571.00,1387.20 L 1564.00,1387.20 L 1563.00,1383.20 L 1548.00,1383.20 L 1547.80,1376.00 L 1540.00,1375.20 L 1539.00,1371.20 L 1520.00,1371.20 L 1519.80,1368.00 L 1516.00,1367.20 L 1515.80,1364.00 L 1512.00,1363.20 L 1511.80,1360.00 L 1508.00,1359.20 L 1507.00,1355.20 L 1500.00,1355.20 L 1499.00,1351.20 L 1484.00,1351.20 L 1483.80,1348.00 L 1480.00,1347.20 L 1479.80,1344.00 L 1476.00,1343.20 L 1475.00,1339.20 L 1468.00,1339.20 L 1467.00,1335.20 L 1448.00,1335.20 L 1447.80,1332.00 L 1444.00,1331.20 L 1443.80,1328.00 L 1440.00,1327.20 L 1439.80,1324.00 L 1436.00,1323.20 L 1435.00,1319.20 L 1420.00,1319.20 L 1419.00,1315.20 L 1412.00,1315.20 L 1411.80,1312.00 L 1408.00,1311.20 L 1407.80,1308.00 L 1404.00,1307.20 L 1403.00,1303.20 L 1392.00,1303.20 L 1391.80,1300.00 L 1388.00,1299.20 L 1387.80,1296.00 L 1384.00,1295.20 L 1383.00,1291.20 L 1379.80,1291.00 L 1379.80,1284.00 L 1375.80,1283.00 L 1375.80,1276.00 L 1371.80,1275.00 L 1371.80,1224.00 L 1367.80,1223.00 L 1367.80,1208.00 L 1364.00,1207.20 L 1363.00,1203.20 L 1359.80,1203.00 L 1359.80,1196.00 L 1355.80,1195.00 L 1355.80,1140.00 L 1351.80,1139.00 L 1351.80,1128.00 L 1348.00,1127.20 L 1347.00,1123.20 L 1343.80,1123.00 L 1343.80,1112.00 L 1339.80,1111.00 L 1339.80,1052.00 L 1336.00,1051.20 L 1335.80,1048.00 L 1332.00,1047.20 L 1331.80,1044.00 L 1328.00,1043.20 L 1327.00,1039.20 L 1323.80,1039.00 L 1323.80,980.00 L 1319.80,979.00 L 1319.80,960.00 L 1316.00,959.20 L 1315.80,956.00 L 1312.00,955.20 L 1311.00,951.20 L 1307.80,951.00 L 1307.80,900.00 L 1303.80,899.00 L 1303.80,884.00 L 1299.80,883.00 L 1299.80,876.00 L 1296.00,875.20 L 1295.00,871.20 L 1291.80,871.00 L 1291.80,828.00 L 1287.80,827.00 L 1287.80,808.00 L 1311.00,807.80 L 1311.20,811.00 L 1315.00,811.80 L 1315.20,815.00 L 1319.00,815.80 L 1319.20,819.00 L 1323.00,819.80 L 1324.00,823.80 L 1347.00,823.80 L 1347.20,827.00 L 1351.00,827.80 L 1351.20,831.00 L 1355.00,831.80 L 1356.00,835.80 L 1371.00,835.80 L 1372.00,839.80 L 1379.00,839.80 L 1379.20,843.00 L 1383.00,843.80 L 1383.20,847.00 L 1387.00,847.80 L 1388.00,851.80 L 1399.00,851.80 L 1400.00,855.80 L 1411.00,855.80 L 1412.00,859.80 L 1419.00,859.80 L 1419.20,863.00 L 1423.00,863.80 L 1423.20,867.00 L 1427.00,867.80 L 1428.00,871.80 L 1447.00,871.80 L 1447.20,875.00 L 1451.00,875.80 L 1451.20,879.00 L 1455.00,879.80 L 1455.20,883.00 L 1459.00,883.80 L 1460.00,887.80 L 1475.00,887.80 L 1476.00,891.80 L 1483.00,891.80 L 1483.20,895.00 L 1487.00,895.80 L 1488.00,899.80 L 1491.20,900.00 L 1491.20,907.00 L 1495.20,908.00 L 1495.20,915.00 L 1491.20,916.00 L 1491.20,931.00 L 1495.20,932.00 L 1495.20,951.00 L 1499.00,951.80 L 1499.20,955.00 L 1503.00,955.80 L 1503.20,959.00 L 1507.00,959.80 L 1508.00,963.80 L 1511.20,964.00 L 1511.20,1007.00 L 1515.20,1008.00 L 1515.20,1015.00 L 1519.00,1015.80 L 1519.20,1019.00 L 1523.00,1019.80 L 1524.00,1023.80 L 1527.20,1024.00 L 1527.20,1059.00 L 1531.20,1060.00 L 1531.20,1075.00 L 1535.00,1075.80 L 1535.20,1079.00 L 1539.00,1079.80 L 1540.00,1083.80 L 1543.20,1084.00 L 1543.20,1115.00 L 1547.20,1116.00 L 1547.20,1127.00 L 1551.00,1127.80 L 1552.00,1131.80 L 1555.20,1132.00 L 1555.20,1143.00 L 1559.20,1144.00 L 1559.20,1183.00 L 1563.00,1183.80 L 1563.20,1187.00 L 1567.00,1187.80 L 1568.00,1191.80 L 1571.20,1192.00 L 1571.20,1199.00 L 1575.20,1200.00 L 1575.20,1235.00 L 1579.00,1235.80 L 1579.20,1239.00 L 1583.00,1239.80 L 1583.20,1243.00 L 1587.00,1243.80 L 1587.20,1247.00 L 1591.00,1247.80 L 1591.20,1251.00 L 1595.00,1251.80 L 1595.20,1255.00 L 1599.00,1255.80 L 1599.20,1259.00 L 1603.00,1259.80 L 1604.00,1263.80 L 1611.00,1263.80 L 1612.00,1267.80 L 1627.00,1267.80 L 1628.00,1271.80 L 1655.00,1271.80 L 1656.00,1267.80 L 1663.00,1267.80 L 1664.00,1263.80 L 1679.00,1263.80 L 1679.80,1260.00 L 1683.80,1259.00 L 1683.80,1248.00 L 1687.00,1247.80 L 1687.80,1244.00 L 1691.00,1243.80 L 1691.80,1240.00 L 1695.00,1239.80 L 1695.80,1236.00 L 1699.80,1235.00 L 1699.80,1172.00 L 1696.00,1171.20 L 1695.80,1168.00 L 1692.00,1167.20 L 1691.00,1163.20 L 1687.80,1163.00 L 1687.80,1156.00 L 1683.80,1155.00 L 1683.80,1120.00 L 1679.80,1119.00 L 1679.80,1112.00 L 1675.80,1111.00 L 1675.80,1104.00 L 1671.80,1103.00 L 1671.80,1096.00 L 1667.80,1095.00 L 1667.80,1060.00 L 1663.80,1059.00 L 1663.80,1052.00 L 1660.00,1051.20 L 1659.00,1047.20 L 1655.80,1047.00 L 1655.80,1016.00 L 1651.80,1015.00 L 1651.80,1004.00 L 1647.80,1003.00 L 1647.80,992.00 L 1644.00,991.20 L 1643.00,987.20 L 1639.80,987.00 L 1639.80,980.00 L 1635.80,979.00 L 1635.80,936.00 L 1632.00,935.20 L 1631.80,932.00 L 1628.00,931.20 L 1627.00,927.20 L 1623.80,927.00 L 1623.80,920.00 L 1619.80,919.00 L 1619.80,880.00 L 1615.80,879.00 L 1615.80,872.00 L 1612.00,871.20 L 1611.80,868.00 L 1608.00,867.20 L 1607.00,863.20 L 1603.80,863.00 L 1603.80,828.00 L 1599.80,827.00 L 1599.80,820.00 L 1596.00,819.20 L 1595.80,816.00 L 1592.00,815.20 L 1591.80,812.00 L 1588.00,811.20 L 1587.80,808.00 L 1584.00,807.20 L 1583.80,804.00 L 1580.00,803.20 L 1579.80,800.00 L 1576.00,799.20 L 1575.00,795.20 L 1564.00,795.20 L 1563.80,792.00 L 1560.00,791.20 L 1559.80,788.00 L 1556.00,787.20 L 1555.80,784.00 L 1552.00,783.20 L 1551.00,779.20 L 1524.00,779.20 L 1523.80,772.00 L 1520.00,771.20 L 1519.80,768.00 L 1516.00,767.20 L 1515.00,763.20 L 1496.00,763.20 L 1495.00,759.20 L 1488.00,759.20 L 1487.80,756.00 L 1483.80,755.00 L 1483.00,747.20 L 1460.00,747.20 L 1459.00,743.20 L 1452.00,743.20 L 1451.80,740.00 L 1448.00,739.20 L 1447.80,736.00 L 1444.00,735.20 L 1443.00,731.20 L 1436.00,731.20 L 1435.00,727.20 L 1424.00,727.20 L 1423.80,724.00 L 1420.00,723.20 L 1419.80,720.00 L 1416.00,719.20 L 1415.00,715.20 L 1388.00,715.20 L 1387.80,708.00 L 1384.00,707.20 L 1383.80,704.00 L 1380.00,703.20 L 1379.00,699.20 L 1364.00,699.20 L 1363.00,695.20 L 1356.00,695.20 L 1355.80,692.00 L 1352.00,691.20 L 1351.80,688.00 L 1348.00,687.20 L 1347.00,683.20 L 1332.00,683.20 L 1331.00,679.20 L 1324.00,679.20 L 1323.80,676.00 L 1320.00,675.20 L 1319.80,672.00 L 1316.00,671.20 L 1315.80,668.00 L 1312.00,667.20 L 1311.80,664.00 L 1308.00,663.20 L 1307.00,659.20 L 1303.80,659.00 L 1304.00,655.80 L 1307.80,655.00 L 1307.80,640.00 L 1315.00,639.80 L 1316.00,635.80 L 1319.80,635.00 L 1319.80,624.00 L 1323.80,623.00 L 1323.80,604.00 L 1327.00,603.80 L 1328.00,599.80 L 1331.80,599.00 L 1332.00,595.80 L 1335.80,595.00 L 1336.00,591.80 L 1339.80,591.00 L 1339.80,476.00 L 1335.80,475.00 L 1335.80,468.00 L 1331.80,467.00 L 1331.80,460.00 L 1328.00,459.20 L 1327.00,455.20 L 1323.80,455.00 L 1323.80,436.00 L 1319.80,435.00 L 1319.80,424.00 L 1316.00,423.20 L 1315.00,419.20 L 1307.80,419.00 L 1307.80,404.00 L 1303.80,403.00 L 1303.80,396.00 L 1300.00,395.20 L 1299.80,392.00 L 1296.00,391.20 L 1295.80,388.00 L 1292.00,387.20 L 1291.00,383.20 L 1287.80,383.00 L 1287.00,375.20 L 1279.80,375.00 L 1279.80,368.00 L 1276.00,367.20 L 1275.80,364.00 L 1272.00,363.20 L 1271.80,360.00 L 1268.00,359.20 L 1267.80,356.00 L 1264.00,355.20 L 1263.80,352.00 L 1260.00,351.20 L 1259.80,348.00 L 1256.00,347.20 L 1255.80,344.00 L 1252.00,343.20 L 1251.00,339.20 L 1244.00,339.20 L 1243.80,336.00 L 1240.00,335.20 L 1239.80,332.00 L 1236.00,331.20 L 1235.80,328.00 L 1232.00,327.20 L 1231.00,323.20 L 1216.00,323.20 L 1215.00,319.20 L 1208.00,319.20 L 1207.80,312.00 L 1204.00,311.20 L 1203.00,307.20 L 1184.00,307.20 L 1183.00,303.20 L 1172.00,303.20 L 1171.80,300.00 L 1168.00,299.20 L 1167.00,295.20 L 1156.00,295.20 L 1155.00,291.20 L 1148.00,291.20 L 1147.00,287.20 L 1040.00,287.20 L 1039.00,291.20 L 1035.20,292.00 L 1035.00,295.20 L 1031.20,296.00 L 1031.00,299.20 L 1024.00,299.20 L 1023.00,303.20 L 1008.00,303.20 L 1007.00,307.20 L 992.00,307.20 L 991.20,311.00 L 988.00,311.20 L 987.20,315.00 L 983.20,316.00 L 983.00,319.20 L 976.00,319.20 L 975.00,323.20 L 968.00,323.20 L 967.00,327.20 L 960.00,327.20 L 959.20,331.00 L 956.00,331.20 L 955.20,335.00 L 951.20,336.00 L 951.00,339.20 L 944.00,339.20 L 943.20,343.00 L 940.00,343.20 L 939.20,347.00 L 936.00,347.20 L 935.20,351.00 L 932.00,351.20 L 931.20,355.00 L 928.00,355.20 L 927.20,359.00 L 924.00,359.20 L 923.20,363.00 L 920.00,363.20 L 919.20,367.00 L 916.00,367.20 L 915.20,371.00 L 912.00,371.20 L 911.20,375.00 L 908.00,375.20 L 907.20,379.00 L 904.00,379.20 L 903.20,383.00 L 899.20,384.00 L 899.20,391.00 L 896.00,391.20 L 895.20,395.00 L 891.20,396.00 L 891.20,407.00 L 887.20,408.00 L 887.20,415.00 L 884.00,415.20 L 883.20,419.00 L 880.00,419.20 L 879.20,423.00 L 876.00,423.20 L 875.20,427.00 L 871.20,428.00 L 871.20,447.00 L 867.20,448.00 L 867.20,463.00 L 864.00,463.20 L 863.20,467.00 L 860.00,467.20 L 859.20,471.00 L 855.20,472.00 L 855.20,587.00 L 859.00,587.80 L 860.00,591.80 L 863.20,592.00 L 863.20,603.00 L 867.20,604.00 L 867.20,611.00 L 871.20,612.00 L 871.20,631.00 L 875.00,631.80 L 875.20,635.00 L 879.00,635.80 L 880.00,639.80 L 883.20,640.00 L 883.20,651.00 L 887.20,652.00 L 887.20,659.00 L 891.20,660.00 L 891.20,667.00 L 895.00,667.80 L 895.20,671.00 L 899.00,671.80 L 899.20,675.00 L 903.00,675.80 L 904.00,679.80 L 907.20,680.00 L 908.00,687.80 L 915.00,687.80 L 915.20,691.00 L 919.00,691.80 L 920.00,695.80 L 923.20,696.00 L 924.00,703.80 L 931.00,703.80 L 931.20,707.00 L 935.00,707.80 L 935.20,711.00 L 939.00,711.80 L 940.00,715.80 L 943.20,716.00 L 944.00,723.80 L 951.00,723.80 L 951.20,727.00 L 955.00,727.80 L 955.20,731.00 L 959.00,731.80 L 960.00,735.80 L 967.00,735.80 L 968.00,739.80 L 983.00,739.80 L 983.20,743.00 L 987.20,744.00 L 987.20,751.00 L 991.00,751.80 L 992.00,755.80 L 1027.00,755.80 L 1027.20,759.00 L 1031.00,759.80 L 1031.20,763.00 L 1035.00,763.80 L 1035.20,767.00 L 1039.00,767.80 L 1040.00,771.80 L 1095.00,771.80 L 1095.20,775.00 L 1099.20,776.00 L 1099.20,803.00 L 1096.00,803.20 L 1095.00,807.20 L 1091.20,808.00 L 1091.20,815.00 L 1087.20,816.00 L 1087.20,827.00 L 1083.20,828.00 L 1083.20,859.00 L 1079.20,860.00 L 1079.20,867.00 L 1075.20,868.00 L 1075.20,875.00 L 1071.20,876.00 L 1071.20,883.00 L 1067.20,884.00 L 1067.20,911.00 L 1063.20,912.00 L 1063.20,923.00 L 1060.00,923.20 L 1059.00,927.20 L 1055.20,928.00 L 1055.00,931.20 L 1051.20,932.00 L 1051.20,967.00 L 1047.20,968.00 L 1047.20,975.00 L 892.00,975.20 L 891.00,971.20 L 860.00,971.20 L 859.80,968.00 L 856.00,967.20 L 855.00,963.20 L 800.00,963.20 L 799.00,959.20 L 700.00,959.20 L 699.20,963.00 L 696.00,963.20 L 695.20,967.00 L 692.00,967.20 L 691.20,971.00 L 687.20,972.00 L 687.00,975.20 L 680.00,975.20 L 679.20,979.00 L 676.00,979.20 L 675.20,983.00 L 672.00,983.20 L 671.20,987.00 L 668.00,987.20 L 667.20,991.00 L 664.00,991.20 L 663.20,995.00 L 660.00,995.20 L 659.20,999.00 L 655.20,1000.00 L 655.20,1023.00 L 659.20,1024.00 L 659.20,1031.00 L 656.00,1031.20 L 655.20,1035.00 L 659.20,1036.00 L 659.20,1047.00 L 663.20,1048.00 L 664.00,1051.80 L 667.20,1052.00 L 668.00,1055.80 L 671.20,1056.00 L 672.00,1059.80 L 675.20,1060.00 L 676.00,1063.80 L 679.20,1064.00 L 680.00,1067.80 L 683.20,1068.00 L 684.00,1071.80 L 687.20,1072.00 L 688.00,1075.80 L 691.20,1076.00 L 692.00,1079.80 L 695.20,1080.00 L 696.00,1083.80 L 791.00,1083.80 L 792.00,1087.80 L 811.00,1087.80 L 811.20,1091.00 L 815.20,1092.00 L 816.00,1095.80 L 871.00,1095.80 L 872.00,1099.80 L 879.00,1099.80 L 880.00,1103.80 L 1055.00,1103.80 L 1056.00,1107.80 L 1063.00,1107.80 L 1064.00,1111.80 L 1079.00,1111.80 L 1080.00,1115.80 L 1099.00,1115.80 L 1099.80,1112.00 L 1103.00,1111.80 L 1103.80,1108.00 L 1107.80,1107.00 L 1108.00,1103.80 L 1115.00,1103.80 L 1115.80,1100.00 L 1119.80,1099.00 L 1120.00,1095.80 L 1135.00,1095.80 L 1135.80,1088.00 L 1139.80,1087.00 L 1139.80,1080.00 L 1143.80,1079.00 L 1143.80,1068.00 L 1151.00,1067.80 L 1151.80,1060.00 L 1155.00,1059.80 L 1155.80,1056.00 L 1159.80,1055.00 L 1159.80,1008.00 L 1163.00,1007.80 L 1164.00,1003.80 L 1167.80,1003.00 L 1168.00,999.80 L 1171.80,999.00 L 1171.80,968.00 L 1175.80,967.00 L 1176.00,959.80 L 1183.00,959.80 L 1183.20,963.00 L 1187.20,964.00 L 1187.20,983.00 L 1191.00,983.80 L 1192.00,987.80 L 1195.20,988.00 L 1195.20,1007.00 L 1199.20,1008.00 L 1199.20,1055.00 L 1203.20,1056.00 L 1203.20,1063.00 L 1207.00,1063.80 L 1207.20,1067.00 L 1211.00,1067.80 L 1212.00,1071.80 L 1215.20,1072.00 L 1215.20,1143.00 L 1219.00,1143.80 L 1219.20,1147.00 L 1223.00,1147.80 L 1224.00,1151.80 L 1227.20,1152.00 L 1227.20,1159.00 L 1231.20,1160.00 L 1231.20,1211.00 L 1235.20,1212.00 L 1235.20,1227.00 L 1239.00,1227.80 L 1240.00,1231.80 L 1243.20,1232.00 L 1243.20,1243.00 L 1247.20,1244.00 L 1247.20,1295.00 L 1251.20,1296.00 L 1251.20,1307.00 L 1255.00,1307.80 L 1256.00,1311.80 L 1259.20,1312.00 L 1259.20,1323.00 L 1263.20,1324.00 L 1263.20,1351.00 L 1260.00,1351.20 L 1259.20,1355.00 L 1256.00,1355.20 L 1255.20,1359.00 L 1251.20,1360.00 L 1251.20,1367.00 L 1247.20,1368.00 L 1247.20,1411.00 L 1244.00,1411.20 L 1243.20,1415.00 L 1240.00,1415.20 L 1239.20,1419.00 L 1235.20,1420.00 L 1235.20,1427.00 L 1231.20,1428.00 L 1231.20,1471.00 L 1228.00,1471.20 L 1227.20,1475.00 L 1224.00,1475.20 L 1223.20,1479.00 L 1219.20,1480.00 L 1219.20,1487.00 L 1215.20,1488.00 L 1215.20,1531.00 L 1212.00,1531.20 L 1211.20,1535.00 L 1208.00,1535.20 L 1207.20,1539.00 L 1203.20,1540.00 L 1203.20,1547.00 L 1199.20,1548.00 L 1199.20,1587.00 L 1195.20,1588.00 L 1195.20,1595.00 L 1191.20,1596.00 L 1191.20,1603.00 L 1188.00,1603.20 L 1187.20,1607.00 L 1184.00,1607.20 L 1183.20,1611.00 L 1179.20,1612.00 L 1179.20,1655.00 L 1175.20,1656.00 L 1175.20,1663.00 L 1172.00,1663.20 L 1171.20,1667.00 L 1167.20,1668.00 L 1167.20,1679.00 L 1163.20,1680.00 L 1163.20,1687.00 L 1167.20,1688.00 L 1167.20,1699.00 L 1163.20,1700.00 L 1163.20,1739.00 L 1167.20,1740.00 L 1167.20,1775.00 L 1171.20,1776.00 L 1171.20,1791.00 L 1175.20,1792.00 L 1175.20,1799.00 L 1179.20,1800.00 L 1179.20,1915.00 L 1183.20,1916.00 L 1183.20,1923.00 L 1187.20,1924.00 L 1187.20,1935.00 L 1191.20,1936.00 L 1191.20,1947.00 L 1195.20,1948.00 L 1195.20,1967.00 L 1199.20,1968.00 L 1199.20,2079.00 L 1203.00,2079.80 L 1203.20,2083.00 L 1207.00,2083.80 L 1208.00,2087.80 L 1211.20,2088.00 L 1211.20,2095.00 L 1215.20,2096.00 L 1215.20,2115.00 L 1219.00,2115.80 L 1219.20,2119.00 L 1223.00,2119.80 L 1223.20,2123.00 L 1227.00,2123.80 L 1228.00,2127.80" fill="none" stroke="black" stroke-width="4" /><path d="M 1131.00,647.20 L 1064.00,647.20 L 1063.80,644.00 L 1060.00,643.20 L 1059.80,640.00 L 1056.00,639.20 L 1055.00,635.20 L 1036.00,635.20 L 1035.80,632.00 L 1032.00,631.20 L 1031.80,628.00 L 1028.00,627.20 L 1027.80,624.00 L 1024.00,623.20 L 1023.00,619.20 L 1016.00,619.20 L 1015.80,616.00 L 1011.80,615.00 L 1011.80,608.00 L 1008.00,607.20 L 1007.80,604.00 L 1004.00,603.20 L 1003.80,600.00 L 1000.00,599.20 L 999.00,595.20 L 995.80,595.00 L 995.80,588.00 L 991.80,587.00 L 991.80,572.00 L 988.00,571.20 L 987.00,567.20 L 983.80,567.00 L 983.80,560.00 L 979.80,559.00 L 979.80,496.00 L 983.00,495.80 L 983.80,492.00 L 987.00,491.80 L 987.80,488.00 L 991.80,487.00 L 991.80,472.00 L 995.80,471.00 L 995.80,464.00 L 999.00,463.80 L 1000.00,459.80 L 1007.00,459.80 L 1007.80,456.00 L 1011.80,455.00 L 1011.80,448.00 L 1015.00,447.80 L 1016.00,443.80 L 1023.00,443.80 L 1024.00,439.80 L 1027.80,439.00 L 1027.80,432.00 L 1031.80,431.00 L 1032.00,427.80 L 1055.00,427.80 L 1056.00,423.80 L 1059.80,423.00 L 1060.00,419.80 L 1063.80,419.00 L 1064.00,415.80 L 1131.00,415.80 L 1131.20,419.00 L 1135.00,419.80 L 1136.00,423.80 L 1143.00,423.80 L 1144.00,427.80 L 1155.00,427.80 L 1156.00,431.80 L 1167.00,431.80 L 1167.20,439.00 L 1171.00,439.80 L 1172.00,443.80 L 1179.00,443.80 L 1179.20,447.00 L 1183.00,447.80 L 1184.00,451.80 L 1187.20,452.00 L 1187.20,459.00 L 1191.00,459.80 L 1191.20,463.00 L 1195.00,463.80 L 1196.00,467.80 L 1199.20,468.00 L 1199.20,483.00 L 1203.20,484.00 L 1203.20,491.00 L 1207.00,491.80 L 1207.20,495.00 L 1211.00,495.80 L 1212.00,499.80 L 1215.20,500.00 L 1215.20,563.00 L 1212.00,563.20 L 1211.00,567.20 L 1207.20,568.00 L 1207.00,571.20 L 1203.20,572.00 L 1203.00,575.20 L 1199.20,576.00 L 1199.20,591.00 L 1195.20,592.00 L 1195.20,599.00 L 1192.00,599.20 L 1191.00,603.20 L 1187.20,604.00 L 1187.00,607.20 L 1183.20,608.00 L 1183.00,615.20 L 1176.00,615.20 L 1175.00,619.20 L 1171.20,620.00 L 1171.00,623.20 L 1167.20,624.00 L 1167.00,631.20 L 1160.00,631.20 L 1159.00,635.20 L 1140.00,635.20 L 1139.00,639.20 L 1135.20,640.00 L 1135.00,643.20 L 1131.20,644.00" fill="none" stroke="black" stroke-width="4" /><path d="M 459.80,2127.00 L 459.80,2124.00 L 463.00,2123.80 L 463.80,2120.00 L 467.80,2119.00 L 468.00,2115.80 L 495.00,2115.80 L 495.80,2112.00 L 499.00,2111.80 L 499.80,2108.00 L 503.80,2107.00 L 504.00,2103.80 L 519.00,2103.80 L 520.00,2099.80 L 531.00,2099.80 L 531.80,2092.00 L 535.80,2091.00 L 535.80,2084.00 L 543.00,2083.80 L 544.00,2079.80 L 551.00,2079.80 L 551.80,2068.00 L 559.00,2067.80 L 560.00,2063.80 L 567.00,2063.80 L 567.80,2056.00 L 571.80,2055.00 L 571.80,2048.00 L 579.00,2047.80 L 579.80,2044.00 L 583.00,2043.80 L 583.80,2040.00 L 587.80,2039.00 L 587.80,2032.00 L 595.80,2031.00 L 595.80,2024.00 L 599.80,2023.00 L 599.80,2000.00 L 603.00,1999.80 L 603.80,1996.00 L 607.00,1995.80 L 607.80,1992.00 L 611.00,1991.80 L 611.80,1988.00 L 615.80,1987.00 L 615.80,1856.00 L 611.80,1855.00 L 611.00,1851.20 L 607.80,1851.00 L 607.00,1847.20 L 603.80,1847.00 L 603.00,1843.20 L 599.80,1843.00 L 599.80,1824.00 L 595.80,1823.00 L 595.80,1816.00 L 591.80,1815.00 L 591.00,1811.20 L 587.80,1811.00 L 587.00,1807.20 L 583.80,1807.00 L 583.00,1803.20 L 579.80,1803.00 L 579.80,1796.00 L 575.80,1795.00 L 575.00,1791.20 L 571.80,1791.00 L 571.00,1787.20 L 567.80,1787.00 L 567.00,1783.20 L 563.80,1783.00 L 563.00,1779.20 L 559.80,1779.00 L 559.00,1775.20 L 555.80,1775.00 L 555.00,1771.20 L 551.80,1771.00 L 551.00,1767.20 L 544.00,1767.20 L 543.80,1764.00 L 539.80,1763.00 L 539.00,1759.20 L 535.80,1759.00 L 535.80,1752.00 L 531.80,1751.00 L 531.00,1747.20 L 524.00,1747.20 L 523.00,1743.20 L 512.00,1743.20 L 511.80,1740.00 L 507.80,1739.00 L 507.00,1735.20 L 500.00,1735.20 L 499.00,1731.20 L 476.00,1731.20 L 475.00,1727.20 L 468.00,1727.20 L 467.80,1724.00 L 463.80,1723.00 L 463.00,1719.20 L 459.80,1719.00 L 459.00,1715.20 L 440.00,1715.20 L 439.00,1711.20 L 392.00,1711.20 L 391.00,1715.20 L 376.00,1715.20 L 375.20,1719.00 L 371.20,1720.00 L 371.00,1723.20 L 364.00,1723.20 L 363.20,1727.00 L 359.20,1728.00 L 359.00,1731.20 L 332.00,1731.20 L 331.20,1735.00 L 328.00,1735.20 L 327.20,1739.00 L 323.20,1740.00 L 323.00,1743.20 L 308.00,1743.20 L 307.20,1747.00 L 304.00,1747.20 L 303.20,1751.00 L 300.00,1751.20 L 299.20,1755.00 L 296.00,1755.20 L 295.20,1759.00 L 292.00,1759.20 L 291.20,1763.00 L 288.00,1763.20 L 287.20,1767.00 L 284.00,1767.20 L 283.20,1771.00 L 279.20,1772.00 L 279.00,1775.20 L 272.00,1775.20 L 271.20,1779.00 L 268.00,1779.20 L 267.20,1783.00 L 263.20,1784.00 L 263.20,1791.00 L 260.00,1791.20 L 259.20,1795.00 L 256.00,1795.20 L 255.20,1799.00 L 252.00,1799.20 L 251.20,1803.00 L 248.00,1803.20 L 247.20,1807.00 L 243.20,1808.00 L 243.20,1815.00 L 240.00,1815.20 L 239.20,1819.00 L 236.00,1819.20 L 235.20,1823.00 L 231.20,1824.00 L 231.20,1839.00 L 227.20,1840.00 L 227.20,1847.00 L 224.00,1847.20 L 223.20,1851.00 L 220.00,1851.20 L 219.20,1855.00 L 216.00,1855.20 L 215.20,1859.00 L 211.20,1860.00 L 211.20,1983.00 L 215.20,1984.00 L 216.00,1987.80 L 219.20,1988.00 L 220.00,1995.80 L 227.20,1996.00 L 227.20,2007.00 L 231.20,2008.00 L 231.20,2023.00 L 235.20,2024.00 L 236.00,2027.80 L 239.20,2028.00 L 240.00,2031.80 L 243.20,2032.00 L 243.20,2039.00 L 247.20,2040.00 L 248.00,2043.80 L 251.20,2044.00 L 252.00,2047.80 L 255.20,2048.00 L 256.00,2051.80 L 259.20,2052.00 L 260.00,2055.80 L 263.20,2056.00 L 264.00,2059.80 L 267.20,2060.00 L 268.00,2063.80 L 271.20,2064.00 L 272.00,2067.80 L 275.20,2068.00 L 276.00,2071.80 L 279.20,2072.00 L 280.00,2075.80 L 283.20,2076.00 L 284.00,2079.80 L 287.20,2080.00 L 288.00,2083.80 L 295.00,2083.80 L 296.00,2087.80 L 299.20,2088.00 L 299.20,2095.00 L 303.20,2096.00 L 304.00,2099.80 L 315.00,2099.80 L 316.00,2103.80 L 323.00,2103.80 L 323.20,2107.00 L 327.20,2108.00 L 328.00,2111.80 L 335.00,2111.80 L 336.00,2115.80 L 359.00,2115.80 L 360.00,2119.80 L 367.00,2119.80 L 367.20,2123.00 L 371.20,2124.00 L 372.00,2127.80" fill="none" stroke="black" stroke-width="4" /><path d="M 459.00,2055.20 L 368.00,2055.20 L 367.00,2051.20 L 360.00,2051.20 L 359.80,2048.00 L 355.80,2047.00 L 355.00,2043.20 L 344.00,2043.20 L 343.80,2040.00 L 339.80,2039.00 L 339.00,2035.20 L 335.80,2035.00 L 335.00,2031.20 L 331.80,2031.00 L 331.00,2027.20 L 327.80,2027.00 L 327.00,2023.20 L 323.80,2023.00 L 323.00,2019.20 L 319.80,2019.00 L 319.00,2015.20 L 315.80,2015.00 L 315.00,2011.20 L 311.80,2011.00 L 311.00,2007.20 L 307.80,2007.00 L 307.00,2003.20 L 303.80,2003.00 L 303.80,1996.00 L 299.80,1995.00 L 299.00,1991.20 L 291.80,1991.00 L 291.80,1984.00 L 287.80,1983.00 L 287.80,1956.00 L 283.80,1955.00 L 283.00,1951.20 L 279.80,1951.00 L 279.00,1947.20 L 275.80,1947.00 L 275.80,1904.00 L 279.80,1903.00 L 279.80,1896.00 L 283.80,1895.00 L 283.80,1888.00 L 287.80,1887.00 L 287.80,1864.00 L 291.80,1863.00 L 291.80,1852.00 L 299.00,1851.80 L 299.80,1844.00 L 303.00,1843.80 L 304.00,1839.80 L 311.00,1839.80 L 311.80,1832.00 L 319.00,1831.80 L 319.80,1824.00 L 327.80,1823.00 L 328.00,1815.80 L 335.80,1815.00 L 336.00,1807.80 L 343.00,1807.80 L 344.00,1803.80 L 359.00,1803.80 L 359.80,1800.00 L 363.00,1799.80 L 363.80,1796.00 L 367.00,1795.80 L 367.80,1792.00 L 371.80,1791.00 L 372.00,1787.80 L 459.00,1787.80 L 459.20,1791.00 L 463.20,1792.00 L 464.00,1795.80 L 467.20,1796.00 L 468.00,1799.80 L 475.00,1799.80 L 476.00,1803.80 L 491.00,1803.80 L 492.00,1807.80 L 495.20,1808.00 L 495.20,1815.00 L 499.20,1816.00 L 500.00,1819.80 L 503.20,1820.00 L 504.00,1823.80 L 511.00,1823.80 L 511.20,1827.00 L 515.20,1828.00 L 516.00,1831.80 L 519.20,1832.00 L 520.00,1835.80 L 523.20,1836.00 L 523.20,1843.00 L 527.20,1844.00 L 528.00,1847.80 L 531.20,1848.00 L 532.00,1851.80 L 535.20,1852.00 L 536.00,1855.80 L 539.20,1856.00 L 539.20,1875.00 L 543.20,1876.00 L 543.20,1891.00 L 547.20,1892.00 L 548.00,1895.80 L 551.20,1896.00 L 552.00,1899.80 L 555.20,1900.00 L 555.20,1907.00 L 559.20,1908.00 L 559.20,1935.00 L 555.20,1936.00 L 555.20,1943.00 L 551.20,1944.00 L 551.20,1955.00 L 548.00,1955.20 L 547.20,1959.00 L 543.20,1960.00 L 543.20,1967.00 L 539.20,1968.00 L 539.20,1991.00 L 536.00,1991.20 L 535.20,1995.00 L 532.00,1995.20 L 531.20,1999.00 L 527.20,2000.00 L 527.20,2007.00 L 524.00,2007.20 L 523.20,2011.00 L 519.20,2012.00 L 519.00,2015.20 L 511.20,2016.00 L 511.20,2023.00 L 504.00,2023.20 L 503.20,2027.00 L 500.00,2027.20 L 499.20,2031.00 L 496.00,2031.20 L 495.20,2035.00 L 492.00,2035.20 L 491.20,2039.00 L 487.20,2040.00 L 487.00,2043.20 L 472.00,2043.20 L 471.00,2047.20 L 464.00,2047.20 L 463.20,2051.00 L 459.20,2052.00" fill="none" stroke="black" stroke-width="4" /></svg>